<?xml version="1.0" standalone="no"?>
<!DOCTYPE svg PUBLIC "-//W3C//DTD SVG 20010904//EN"
 "http://www.w3.org/TR/2001/REC-SVG-20010904/DTD/svg10.dtd">
<svg version="1.0" xmlns="http://www.w3.org/2000/svg"
 width="1280.000000pt" height="974.000000pt" viewBox="0 0 1280.000000 974.000000"
 preserveAspectRatio="xMidYMid meet">
<g transform="translate(0.000000,974.000000) scale(0.100000,-0.100000)"
fill="#000000" stroke="none">
<path d="M1235 9715 c-234 -42 -441 -126 -617 -252 -105 -74 -267 -236 -341
-341 -118 -165 -210 -383 -242 -576 -9 -50 -20 -115 -25 -145 -13 -74 -13
-6988 0 -7062 5 -30 16 -95 25 -145 32 -193 124 -411 242 -576 74 -105 236
-267 341 -341 165 -118 383 -210 576 -242 50 -9 115 -20 145 -25 74 -13 10048
-13 10122 0 30 5 95 16 145 25 193 32 411 124 576 242 105 74 267 236 341 341
118 165 210 383 242 576 9 50 20 115 25 145 13 74 13 6988 0 7062 -5 30 -16
95 -25 145 -32 193 -124 411 -242 576 -74 105 -236 267 -341 341 -180 129
-382 210 -626 252 l-145 25 -5023 -1 -5023 -1 -130 -23z m10367 -412 c383
-109 660 -388 761 -767 l22 -81 0 -3585 0 -3585 -23 -85 c-70 -257 -224 -474
-436 -615 -104 -69 -191 -108 -314 -143 l-97 -27 -5115 0 -5115 0 -97 27
c-371 104 -639 373 -750 753 l-23 80 -3 3555 c-2 3115 0 3566 13 3641 71 411
401 751 815 840 81 17 298 18 5185 16 l5100 -2 77 -22z"/>
<path d="M1290 4805 l0 -3495 645 0 645 0 2 1463 3 1462 600 6 c622 6 692 10
910 54 860 172 1332 694 1462 1615 25 180 25 632 0 820 -69 508 -219 866 -477
1134 -245 254 -535 386 -934 425 -72 7 -585 11 -1483 11 l-1373 0 0 -3495z
m2320 2461 c123 -20 203 -41 267 -71 212 -96 325 -278 362 -580 14 -113 14
-401 1 -520 -33 -292 -145 -531 -308 -660 -117 -94 -283 -155 -474 -175 -140
-15 -851 -13 -866 2 -18 18 -17 1998 1 2017 19 20 886 9 1017 -13z"/>
<path d="M10590 7485 c-69 -13 -528 -96 -1020 -185 -765 -138 -904 -165 -958
-191 -148 -68 -209 -157 -173 -252 28 -73 202 -189 395 -263 67 -26 125 -51
131 -56 6 -5 -241 -259 -633 -651 l-642 -642 390 -390 390 -390 638 638 c350
350 642 637 648 637 6 0 25 -39 43 -87 73 -193 175 -362 254 -420 94 -70 202
-14 277 143 30 63 53 179 324 1689 80 441 80 446 69 444 -5 0 -64 -11 -133
-24z"/>
<path d="M11085 3309 c-149 -19 -252 -65 -332 -149 -54 -56 -87 -118 -117
-221 -43 -149 -51 -260 -51 -694 0 -346 3 -414 19 -500 54 -293 177 -426 436
-471 243 -42 392 14 487 184 19 34 39 62 44 62 5 0 9 -47 9 -105 l0 -105 130
0 130 0 0 520 0 520 -300 0 -301 0 3 -132 3 -133 125 -5 125 -5 3 -61 c2 -33
-3 -103 -11 -156 -33 -223 -135 -330 -300 -315 -112 10 -186 81 -223 212 -15
51 -18 122 -22 479 -5 534 6 623 85 715 19 23 54 51 77 63 84 44 253 20 315
-45 34 -37 59 -108 70 -197 6 -46 11 -88 11 -92 0 -5 79 -8 176 -8 l176 0 -7
97 c-9 121 -26 189 -70 278 -79 163 -206 240 -437 265 -110 11 -153 11 -253
-1z"/>
<path d="M4290 3267 c0 -2 -103 -437 -230 -967 -126 -530 -230 -970 -230 -977
0 -10 39 -13 184 -13 167 0 185 2 190 18 2 9 23 116 47 237 23 121 46 226 52
233 7 9 61 12 226 10 l216 -3 49 -247 49 -248 190 0 189 0 -7 28 c-15 59 -435
1917 -435 1924 0 4 -110 8 -245 8 -135 0 -245 -1 -245 -3z m254 -265 c3 -26
13 -105 22 -177 9 -71 40 -265 70 -430 29 -165 50 -303 45 -308 -4 -4 -77 -6
-162 -5 l-154 3 1 40 c1 22 27 166 57 320 31 154 63 345 72 425 18 170 23 193
34 185 5 -3 12 -26 15 -53z"/>
<path d="M5390 2290 l0 -980 175 0 175 0 2 423 3 422 145 -1 c186 0 252 -14
301 -63 57 -56 67 -107 74 -359 6 -208 19 -374 31 -407 5 -13 35 -15 200 -15
107 0 194 3 194 7 0 4 -10 26 -21 51 -31 63 -47 202 -57 483 -8 240 -9 248
-36 302 -40 83 -105 129 -208 151 -29 7 -38 24 -15 30 79 23 117 44 162 90 79
79 115 198 115 374 0 274 -131 423 -406 461 -42 6 -244 11 -455 11 l-379 0 0
-980z m765 680 c37 -18 57 -37 75 -70 23 -41 25 -55 25 -170 0 -120 -1 -127
-30 -179 -56 -100 -120 -123 -335 -119 l-145 3 -3 270 c-1 148 0 276 3 283 4
11 40 13 183 10 165 -3 180 -5 227 -28z"/>
<path d="M6955 3258 c-3 -7 -4 -447 -3 -978 l3 -965 175 0 175 0 5 285 5 285
54 87 c29 48 59 92 67 99 16 13 17 12 212 -426 l147 -330 198 -3 c108 -1 197
0 197 4 0 3 -113 255 -251 560 l-250 553 237 413 c130 227 239 416 241 421 2
4 -85 7 -195 7 l-198 0 -172 -322 c-149 -281 -243 -469 -265 -530 -4 -10 -11
-18 -17 -18 -6 0 -11 147 -12 433 l-3 432 -173 3 c-132 2 -174 0 -177 -10z"/>
<path d="M8377 3263 c-4 -3 -7 -444 -7 -980 l0 -973 175 0 175 0 0 980 0 980
-168 0 c-93 0 -172 -3 -175 -7z"/>
<path d="M9050 2290 l0 -980 176 0 177 0 -6 438 c-3 240 -13 527 -21 637 -29
392 -29 405 -18 405 6 0 22 -39 37 -87 102 -347 188 -578 467 -1258 l53 -130
188 -3 187 -2 0 980 0 980 -175 0 -175 0 0 -307 c0 -310 8 -505 35 -906 18
-256 18 -287 5 -287 -5 0 -21 39 -35 88 -80 272 -175 537 -339 947 l-184 460
-186 3 -186 2 0 -980z"/>
</g>
</svg>
